<svg width="193" height="52" viewBox="0 0 193 52" fill="none" xmlns="http://www.w3.org/2000/svg">
<path d="M192.173 36.5229C191.953 36.3379 191.568 36.2246 191.155 36.2246H136.195C135.781 36.2246 135.396 36.3379 135.179 36.5229C134.962 36.7079 134.94 36.9394 135.126 37.1345C136.804 38.9026 140.176 40 143.927 40H183.422C187.172 40 190.543 38.9026 192.226 37.1357C192.407 36.9394 192.39 36.7091 192.173 36.5229Z" fill="#FC247C"/>
<path fill-rule="evenodd" clip-rule="evenodd" d="M187.423 33.7858C187.217 31.6765 186.751 29.6504 186.058 27.74C184.812 29.3151 183.544 30.7158 182.393 31.8256L180.872 33.2924L179.329 31.8498C177.118 29.782 174.521 26.6028 172.467 23.1881C170.46 19.8535 168.744 15.9258 168.735 12.4107C168.148 12.2813 167.553 12.1739 166.951 12.0894C167.147 11.6381 167.259 11.1406 167.259 10.6163C167.259 8.59933 165.651 6.95799 163.675 6.95799C161.699 6.95799 160.09 8.59933 160.09 10.6163C160.09 11.1407 160.203 11.6383 160.399 12.0894C149.572 13.6088 141.022 22.5059 139.925 33.7858H187.423ZM147.899 30.4957C150.119 24.0545 155.875 19.6012 162.559 19.1499C163.218 19.106 163.716 18.5256 163.672 17.8524C163.627 17.1792 163.034 16.6744 162.401 16.7159C154.759 17.2306 148.181 22.3204 145.643 29.6859C145.426 30.3225 145.753 31.0175 146.374 31.242C146.506 31.2883 146.64 31.3102 146.771 31.3102C147.263 31.3102 147.727 30.9956 147.899 30.4957Z" fill="#FC247C"/>
<path fill-rule="evenodd" clip-rule="evenodd" d="M180.868 2.29542C175.419 2.29542 170.984 6.81997 170.984 12.3826C170.984 12.5961 170.992 12.813 171.008 13.033C171.412 18.7232 176.912 26.4763 180.849 30.1572C182.15 28.9017 183.63 27.2294 185.042 25.3449C188.052 21.3275 190.751 16.3459 190.751 12.3826C190.751 6.81997 186.316 2.29542 180.868 2.29542ZM176.375 12.3827C176.375 14.91 178.39 16.9678 180.868 16.9678C183.346 16.9678 185.36 14.91 185.36 12.3827C185.36 9.85542 183.346 7.79763 180.868 7.79763C178.39 7.79763 176.375 9.85542 176.375 12.3827Z" fill="#FC247C"/>
<path d="M5.69092 17.4521L5.79932 19.9092C7.29281 18.0303 9.24398 17.0908 11.6528 17.0908C15.784 17.0908 17.8677 19.4214 17.9038 24.0825V37H14.5615V24.0645C14.5495 22.6553 14.2243 21.6134 13.5859 20.939C12.9596 20.2645 11.978 19.9272 10.6411 19.9272C9.55713 19.9272 8.60563 20.2163 7.78662 20.7944C6.96761 21.3726 6.32926 22.1313 5.87158 23.0708V37H2.5293V17.4521H5.69092ZM31.8677 37C31.675 36.6146 31.5184 35.9281 31.398 34.9404C29.8443 36.5544 27.9894 37.3613 25.8335 37.3613C23.9064 37.3613 22.3226 36.8193 21.0821 35.7354C19.8535 34.6393 19.2393 33.2542 19.2393 31.5801C19.2393 29.5446 20.0101 27.9668 21.5518 26.8467C23.1055 25.7145 25.2855 25.1484 28.0918 25.1484H31.3438V23.6128C31.3438 22.4445 30.9945 21.5171 30.2959 20.8306C29.5973 20.132 28.5676 19.7827 27.2066 19.7827C26.0142 19.7827 25.0145 20.0838 24.2075 20.686C23.4006 21.2882 22.9971 22.0169 22.9971 22.8721H19.6367C19.6367 21.8965 19.98 20.957 20.6665 20.0537C21.3651 19.1383 22.3045 18.4157 23.4849 17.8857C24.6773 17.3558 25.9841 17.0908 27.4053 17.0908C29.6576 17.0908 31.4221 17.6569 32.6987 18.7891C33.9754 19.9092 34.6379 21.4569 34.6861 23.4321V32.4292C34.6861 34.2238 34.9149 35.651 35.3726 36.7109V37H31.8677ZM26.3213 34.4526C27.3692 34.4526 28.3628 34.1816 29.3023 33.6396C30.2417 33.0977 30.9222 32.3931 31.3438 31.5259V27.5151H28.7241C24.6291 27.5151 22.5816 28.7135 22.5816 31.1104C22.5816 32.1582 22.9308 32.9772 23.6294 33.5674C24.328 34.1576 25.2253 34.4526 26.3213 34.4526ZM42.941 32.4653L47.7828 17.4521H51.1973L44.1875 37H41.6402L34.5581 17.4521H37.9727L42.941 32.4653Z" fill="#FC247C"/>
<path d="M67.293 26.5215H57.0674V37H50.7261V10.6953H68.3228V15.5913H57.0674V21.6436H67.293V26.5215ZM68.2202 27.0454C68.2202 25.0942 68.5996 23.3599 69.3584 21.8423C70.1172 20.3127 71.2072 19.1383 72.6284 18.3193C74.0496 17.5003 75.7178 17.0908 77.6328 17.0908C80.5595 17.0908 82.866 18.0002 84.5522 19.8188C86.2384 21.6255 87.0815 24.0885 87.0815 27.208V27.4248C87.0815 30.472 86.2324 32.8929 84.5342 34.6875C82.848 36.4701 80.5595 37.3613 77.6689 37.3613C74.8867 37.3613 72.6525 36.5303 70.9663 34.8682C69.2801 33.194 68.3707 30.9297 68.2383 28.0752L68.2202 27.0454ZM74.3086 27.4248C74.3086 29.2314 74.5916 30.5563 75.1577 31.3994C75.7238 32.2425 76.5608 32.6641 77.6689 32.6641C79.8369 32.6641 80.945 30.9959 80.9931 27.6597V27.0454C80.9931 23.5405 79.873 21.7881 77.6328 21.7881C75.5973 21.7881 74.4953 23.2996 74.3266 26.3228L74.3086 27.4248ZM87.7016 27.0454C87.7016 25.0942 88.081 23.3599 88.8397 21.8423C89.5985 20.3127 90.6885 19.1383 92.1098 18.3193C93.531 17.5003 95.1991 17.0908 97.1142 17.0908C100.041 17.0908 102.347 18.0002 104.034 19.8188C105.72 21.6255 106.563 24.0885 106.563 27.208V27.4248C106.563 30.472 105.714 32.8929 104.016 34.6875C102.329 36.4701 100.041 37.3613 97.1503 37.3613C94.3681 37.3613 92.1339 36.5303 90.4477 34.8682C88.7615 33.194 87.8521 30.9297 87.7196 28.0752L87.7016 27.0454ZM93.7899 27.4248C93.7899 29.2314 94.073 30.5563 94.6391 31.3994C95.2051 32.2425 96.0422 32.6641 97.1503 32.6641C99.3183 32.6641 100.426 30.9959 100.475 27.6597V27.0454C100.475 23.5405 99.3544 21.7881 97.1142 21.7881C95.0787 21.7881 93.9766 23.2996 93.808 26.3228L93.7899 27.4248ZM107.183 27.0815C107.183 23.9862 107.851 21.5472 109.188 19.7646C110.525 17.9821 112.392 17.0908 114.789 17.0908C116.535 17.0908 118.005 17.7773 119.197 19.1504V9.25H125.304V37H119.829L119.522 34.9043C118.27 36.5423 116.68 37.3613 114.753 37.3613C112.428 37.3613 110.585 36.4701 109.224 34.6875C107.863 32.9049 107.183 30.3696 107.183 27.0815ZM113.271 27.4609C113.271 30.9297 114.283 32.6641 116.306 32.6641C117.655 32.6641 118.619 32.098 119.197 30.9658V23.5225C118.643 22.3662 117.692 21.7881 116.343 21.7881C114.464 21.7881 113.446 23.3057 113.289 26.3408L113.271 27.4609Z" fill="#FF0068"/>
</svg>
