<svg width="206" height="113" viewBox="0 0 206 113" fill="none" xmlns="http://www.w3.org/2000/svg">
<path d="M85.7595 52.9582C85.4296 52.6899 84.8527 52.5257 84.2325 52.5257H1.79186C1.17171 52.5257 0.594737 52.6899 0.268447 52.9582C-0.0576759 53.2264 -0.0899354 53.5621 0.189646 53.845C2.70588 56.4088 7.76339 58 13.3908 58H72.6334C78.2573 58 83.3148 56.4088 85.8382 53.8468C86.1108 53.5621 86.0857 53.2282 85.7595 52.9582Z" fill="#FC247C"/>
<path fill-rule="evenodd" clip-rule="evenodd" d="M78.6339 48.9894C78.3261 45.931 77.627 42.9931 76.5874 40.2231C74.7187 42.5069 72.816 44.5379 71.0899 46.1471L68.8086 48.274L66.4941 46.1823C63.1765 43.1838 59.2819 38.5741 56.1998 33.6227C53.1901 28.7876 50.6167 23.0924 50.6031 17.9955C49.7223 17.8079 48.8296 17.6522 47.9265 17.5296C48.2203 16.8753 48.3888 16.1539 48.3888 15.3937C48.3888 12.469 45.9766 10.0891 43.0123 10.0891C40.0479 10.0891 37.6357 12.469 37.6357 15.3937C37.6357 16.154 37.8042 16.8755 38.0981 17.5296C21.8573 19.7328 9.03234 32.6335 7.38711 48.9894H78.6339ZM19.3481 44.2187C22.6781 34.879 31.3128 28.4217 41.3383 27.7674C42.3276 27.7038 43.0733 26.8622 43.0087 25.8859C42.9407 24.9099 42.0517 24.1779 41.1019 24.238C29.6391 24.9843 19.7712 32.3647 15.9646 43.0446C15.6385 43.9676 16.1294 44.9754 17.0614 45.3008C17.2585 45.368 17.4593 45.3998 17.6564 45.3998C18.3946 45.3998 19.0901 44.9436 19.3481 44.2187Z" fill="#FC247C"/>
<path fill-rule="evenodd" clip-rule="evenodd" d="M68.8015 3.32836C60.6288 3.32836 53.9766 9.88896 53.9766 17.9548C53.9766 18.2643 53.9886 18.5788 54.012 18.8978C54.6179 27.1486 62.8673 38.3907 68.7729 43.728C70.7256 41.9074 72.9457 39.4826 75.0633 36.7501C79.5777 30.9249 83.6265 23.7015 83.6265 17.9548C83.6265 9.88896 76.974 3.32836 68.8015 3.32836ZM62.0629 17.9549C62.0629 21.6195 65.0844 24.6033 68.8015 24.6033C72.5185 24.6033 75.5401 21.6195 75.5401 17.9549C75.5401 14.2904 72.5185 11.3066 68.8015 11.3066C65.0846 11.3066 62.0629 14.2904 62.0629 17.9549Z" fill="#FC247C"/>
<path d="M9.76709 68.8857L9.93408 72.6709C12.2349 69.7764 15.2407 68.3291 18.9517 68.3291C25.3159 68.3291 28.5259 71.9194 28.5815 79.1001V99H23.4326V79.0723C23.4141 76.9014 22.9131 75.2964 21.9297 74.2573C20.9648 73.2183 19.4526 72.6987 17.3931 72.6987C15.7231 72.6987 14.2573 73.144 12.9956 74.0347C11.7339 74.9253 10.7505 76.0942 10.0454 77.5415V99H4.89648V68.8857H9.76709ZM52.9435 99C52.6466 98.4062 52.4054 97.3486 52.2198 95.8271C49.8263 98.3135 46.9689 99.5566 43.6476 99.5566C40.6788 99.5566 38.2389 98.7217 36.3278 97.0518C34.4352 95.3633 33.4889 93.2295 33.4889 90.6504C33.4889 87.5146 34.6764 85.084 37.0514 83.3584C39.4449 81.6143 42.8033 80.7422 47.1266 80.7422H52.1363V78.3765C52.1363 76.5767 51.5983 75.1479 50.5221 74.0903C49.4459 73.0142 47.8595 72.4761 45.7628 72.4761C43.9259 72.4761 42.3859 72.9399 41.1427 73.8677C39.8995 74.7954 39.2779 75.918 39.2779 77.2354H34.1012C34.1012 75.7324 34.63 74.2852 35.6876 72.8936C36.7638 71.4834 38.2111 70.3701 40.0294 69.5537C41.8663 68.7373 43.8795 68.3291 46.069 68.3291C49.5387 68.3291 52.257 69.2012 54.2237 70.9453C56.1905 72.6709 57.2111 75.0552 57.2853 78.0981V91.9585C57.2853 94.7231 57.6378 96.9219 58.3429 98.5547V99H52.9435ZM44.399 95.0757C46.0133 95.0757 47.5441 94.6582 48.9913 93.8232C50.4386 92.9883 51.4869 91.9028 52.1363 90.5669V84.3882H48.1007C41.7921 84.3882 38.6378 86.2344 38.6378 89.9268C38.6378 91.541 39.1759 92.8027 40.2521 93.7119C41.3282 94.6211 42.7106 95.0757 44.399 95.0757ZM72.8523 92.0142L80.3113 68.8857H85.5715L74.7727 99H70.8484L59.9382 68.8857H65.1985L72.8523 92.0142Z" fill="#FC247C"/>
<path d="M113.218 82.8574H97.4647V99H87.6957V58.4766H114.804V66.019H97.4647V75.3428H113.218V82.8574ZM114.646 83.6646C114.646 80.6587 115.23 77.9868 116.399 75.6489C117.568 73.2925 119.248 71.4834 121.437 70.2217C123.626 68.96 126.196 68.3291 129.146 68.3291C133.655 68.3291 137.208 69.73 139.806 72.5317C142.404 75.3149 143.703 79.1094 143.703 83.915V84.249C143.703 88.9434 142.395 92.6729 139.778 95.4375C137.181 98.1836 133.655 99.5566 129.202 99.5566C124.916 99.5566 121.474 98.2764 118.876 95.7158C116.279 93.1367 114.878 89.6484 114.674 85.251L114.646 83.6646ZM124.025 84.249C124.025 87.0322 124.461 89.0732 125.333 90.3721C126.206 91.6709 127.495 92.3203 129.202 92.3203C132.542 92.3203 134.249 89.7505 134.323 84.6108V83.6646C134.323 78.2651 132.598 75.5654 129.146 75.5654C126.011 75.5654 124.313 77.894 124.053 82.5513L124.025 84.249ZM144.658 83.6646C144.658 80.6587 145.242 77.9868 146.411 75.6489C147.58 73.2925 149.259 71.4834 151.449 70.2217C153.638 68.96 156.208 68.3291 159.158 68.3291C163.667 68.3291 167.22 69.73 169.818 72.5317C172.416 75.3149 173.714 79.1094 173.714 83.915V84.249C173.714 88.9434 172.406 92.6729 169.79 95.4375C167.192 98.1836 163.667 99.5566 159.214 99.5566C154.928 99.5566 151.486 98.2764 148.888 95.7158C146.291 93.1367 144.89 89.6484 144.686 85.251L144.658 83.6646ZM154.037 84.249C154.037 87.0322 154.473 89.0732 155.345 90.3721C156.217 91.6709 157.507 92.3203 159.214 92.3203C162.554 92.3203 164.261 89.7505 164.335 84.6108V83.6646C164.335 78.2651 162.609 75.5654 159.158 75.5654C156.023 75.5654 154.325 77.894 154.065 82.5513L154.037 84.249ZM174.67 83.7202C174.67 78.9517 175.699 75.1943 177.759 72.4482C179.819 69.7021 182.695 68.3291 186.387 68.3291C189.077 68.3291 191.341 69.3867 193.178 71.502V56.25H202.585V99H194.152L193.679 95.7715C191.749 98.2949 189.3 99.5566 186.331 99.5566C182.75 99.5566 179.911 98.1836 177.815 95.4375C175.718 92.6914 174.67 88.7856 174.67 83.7202ZM184.049 84.3047C184.049 89.6484 185.608 92.3203 188.725 92.3203C190.803 92.3203 192.287 91.4482 193.178 89.7041V78.2373C192.324 76.4561 190.859 75.5654 188.78 75.5654C185.886 75.5654 184.318 77.9033 184.077 82.5791L184.049 84.3047Z" fill="#FF0068"/>
</svg>
