<svg width="32" height="47" viewBox="0 0 32 47" fill="none" xmlns="http://www.w3.org/2000/svg">
<path d="M16 45.7353C15.8837 45.6024 15.7155 45.4086 15.5026 45.1594C15.0665 44.6488 14.4431 43.9054 13.6948 42.9753C12.198 41.115 10.2026 38.5091 8.2078 35.5267C6.21248 32.5435 4.22069 29.1881 2.72848 25.8282C1.23483 22.4651 0.25 19.1157 0.25 16.1396C0.25 7.35274 7.2944 0.25 16 0.25C24.7056 0.25 31.75 7.35274 31.75 16.1396C31.75 19.1157 30.7652 22.4651 29.2715 25.8282C27.7793 29.1881 25.7875 32.5435 23.7922 35.5267C21.7974 38.5091 19.802 41.115 18.3052 42.9753C17.5569 43.9054 16.9335 44.6488 16.4974 45.1594C16.2845 45.4086 16.1163 45.6024 16 45.7353Z" fill="url(#paint0_linear)" stroke="#3F8FD0" stroke-width="0.5"/>
<path d="M17.3267 11.6859V12.9638C17.3267 14.8703 16.2181 16.5172 14.6233 17.2727C14.2196 17.464 13.9177 17.8466 13.9177 18.2933V26C13.9177 26.5523 13.47 27 12.9177 27H12.4089C11.8566 27 11.4089 26.5523 11.4089 26V18.2931C11.4089 17.8464 11.1069 17.4638 10.7032 17.2725C9.10858 16.517 8 14.8702 8 12.9636V11.6857V9C8 8.44772 8.44772 8 9 8H9.5088C10.0611 8 10.5088 8.44772 10.5088 9V13.2356C10.5088 13.4842 10.7103 13.6857 10.9589 13.6857V13.6857C11.2075 13.6857 11.409 13.4842 11.409 13.2356V9C11.409 8.44771 11.8567 8 12.409 8H12.9178C13.4701 8 13.9178 8.44772 13.9178 9V13.2356C13.9178 13.4842 14.1193 13.6857 14.3679 13.6857V13.6857C14.6165 13.6857 14.818 13.4842 14.818 13.2356V9C14.818 8.44771 15.2658 8 15.818 8H16.3267C16.879 8 17.3267 8.44773 17.3267 9.00002L17.3267 11.6859ZM25 16.6C25 18.4696 23.9208 19.3264 22.364 19.8851C21.9447 20.0356 21.6478 20.4212 21.6478 20.8667V25.9999C21.6478 26.5522 21.2001 26.9999 20.6478 26.9999H20.139C19.5867 26.9999 19.139 26.5522 19.139 25.9999V21.2929V18.9919V9.00119C19.139 8.44891 19.5867 8.00119 20.139 8.00119H20.3934C22.9334 8.00119 25 10.1064 25 12.6941V16.6Z" fill="white"/>
<defs>
<linearGradient id="paint0_linear" x1="15.5556" y1="-0.443396" x2="13.7965" y2="46.9842" gradientUnits="userSpaceOnUse">
<stop offset="0.0774498" stop-color="#5CA4D6"/>
<stop offset="1" stop-color="#1975C8"/>
</linearGradient>
</defs>
</svg>
